# xmcd
#
# Track frame offsets:
#	183
#	10583
#	21658
#	30120
#	44295
#	59683
#	70020
#	85020
#	97433
#	118783
#	132795
#	144408
#	151995
#	162508
#	176558
#
# Disc length: 2536 seconds
#
# Revision: 1
# Processed by: cddbd v1.5.2PL0 Copyright (c) Steve Scherf et al.
# Submitted via: audiograbber 1.83.01
#
DISCID=c609e60f
DTITLE=AA.VV. - 030 - L'Italia che balla 2
DYEAR=1994
DGENRE=Folklore
TTITLE0=A.Celentano - Ventiquattromila baci
TTITLE1=Mina - Prendi una matita
TTITLE2=G.Gaber - Ciao ti dirò
TTITLE3=E.Vianello - I watussi
TTITLE4=T.Pane - Tarantella internazionale
TTITLE5=R.Pavone - Il ballo del mattone
TTITLE6=C.Mazzetti - Pepito
TTITLE7=T.Casoni - Ba-ba-dù
TTITLE8=M.Paris - Tammuriata d'autunno
TTITLE9=J.DePalma - Mia vecchia Broadway
TTITLE10=Michelino - Cha cha cha della segretaria
TTITLE11=A.Celentano - Piccola
TTITLE12=Mina - Folle banderuola
TTITLE13=N.Natali - Trio Lescano - E' arrivato l'ambasciatore
TTITLE14=S.Fioresi - Trio Lescano - Il pinguino innamorato
EXTD=
EXTT0=
EXTT1=
EXTT2=
EXTT3=
EXTT4=
EXTT5=
EXTT6=
EXTT7=
EXTT8=
EXTT9=
EXTT10=
EXTT11=
EXTT12=
EXTT13=
EXTT14=
PLAYORDER=
